{"title":"Second Hand Husband 2015 Hindi Movies PDVDRip XviD New Sample â˜»r","uid":12090089,"size":740029694,"categoryP":"video","categoryS":"movies","magnet":"?xt=urn:btih:10f8b6037cc6176283a7b9f67050ff37dbbab4f3&amp;dn=Second+Hand+Husband+2015+Hindi+Movies+PDVDRip+XviD+New+Sample+%E2%98%BBr&amp;tr=udp%3A%2F%2Ftracker.openbittorrent.com%3A80&amp;tr=udp%3A%2F%2Fopen.demonii.com%3A1337&amp;tr=udp%3A%2F%2Ftracker.coppersurfer.tk%3A6969&amp;tr=udp%3A%2F%2Fexodus.desync.com%3A6969","seeders":26,"leechers":13,"uploader":"basicssom","files":2,"time":1436020252,"description":"----------------------------------------------------------------\nSecond Hand Husband 2015 Hindi Movies PDVDRip XviD AAC New Source with Sample ~ â˜»rDXâ˜»\n\nSCREEN SHOTS &amp; POSTER:\n &lt;a href=&quot;\nhttp://imagehosting4u.com/2015/7/SecondHandHusband/11.html&quot; rel=&quot;nofollow&quot; target=&quot;_NEW&quot;&gt;\nhttp://imagehosting4u.com/2015/7/SecondHandHusband/11.html&lt;/a&gt; &lt;a href=&quot;\nhttp://imagehosting4u.com/2015/7/SecondHandHusband/1.html&quot; rel=&quot;nofollow&quot; target=&quot;_NEW&quot;&gt;\nhttp://imagehosting4u.com/2015/7/SecondHandHusband/1.html&lt;/a&gt; &lt;a href=&quot;\nhttp://imagehosting4u.com/2015/7/SecondHandHusband/2.html&quot; rel=&quot;nofollow&quot; target=&quot;_NEW&quot;&gt;\nhttp://imagehosting4u.com/2015/7/SecondHandHusband/2.html&lt;/a&gt; &lt;a href=&quot;\nhttp://imagehosting4u.com/2015/7/SecondHandHusband/3.html&quot; rel=&quot;nofollow&quot; target=&quot;_NEW&quot;&gt;\nhttp://imagehosting4u.com/2015/7/SecondHandHusband/3.html&lt;/a&gt; &lt;a href=&quot;\nhttp://imagehosting4u.com/2015/7/SecondHandHusband/4.html&quot; rel=&quot;nofollow&quot; target=&quot;_NEW&quot;&gt;\nhttp://imagehosting4u.com/2015/7/SecondHandHusband/4.html&lt;/a&gt; &lt;a href=&quot;\nhttp://imagehosting4u.com/2015/7/SecondHandHusband/5.html&quot; rel=&quot;nofollow&quot; target=&quot;_NEW&quot;&gt;\nhttp://imagehosting4u.com/2015/7/SecondHandHusband/5.html&lt;/a&gt; &lt;a href=&quot;\nhttp://imagehosting4u.com/2015/7/SecondHandHusband/6.html&quot; rel=&quot;nofollow&quot; target=&quot;_NEW&quot;&gt;\nhttp://imagehosting4u.com/2015/7/SecondHandHusband/6.html&lt;/a&gt; &lt;a href=&quot;\nhttp://imagehosting4u.com/2015/7/SecondHandHusband/7.html&quot; rel=&quot;nofollow&quot; target=&quot;_NEW&quot;&gt;\nhttp://imagehosting4u.com/2015/7/SecondHandHusband/7.html&lt;/a&gt; &lt;a href=&quot;\nhttp://imagehosting4u.com/2015/7/SecondHandHusband/8.html&quot; rel=&quot;nofollow&quot; target=&quot;_NEW&quot;&gt;\nhttp://imagehosting4u.com/2015/7/SecondHandHusband/8.html&lt;/a&gt; &lt;a href=&quot;\nhttp://imagehosting4u.com/2015/7/SecondHandHusband/9.html&quot; rel=&quot;nofollow&quot; target=&quot;_NEW&quot;&gt;\nhttp://imagehosting4u.com/2015/7/SecondHandHusband/9.html&lt;/a&gt; &lt;a href=&quot;\nhttp://imagehosting4u.com/2015/7/SecondHandHusband/10.html&quot; rel=&quot;nofollow&quot; target=&quot;_NEW&quot;&gt;\nhttp://imagehosting4u.com/2015/7/SecondHandHusband/10.html&lt;/a&gt;\n\nFormat                                   : Matroska\nFormat version                           : Version 4 / Version 2\nFile size                                : 695 MiB\nDuration                                 : 1h 41mn\nOverall bit rate                         : 957 Kbps\nMovie name                               : Second Hand Husband 2015 Hindi Movies PDVDRip XviD AAC New Source ~ rDX ~\n\nVideo\nID                                       : 1\nFormat                                   : MPEG-4 Visual\nFormat profile                           : Advanced Simple@L5\nFormat settings, BVOP                    : Yes\nFormat settings, QPel                    : No\nFormat settings, GMC                     : No warppoints\nFormat settings, Matrix                  : Default (H.263)\nCodec ID                                 : V_MS/VFW/FOURCC / XVID\nCodec ID/Hint                            : XviD\nDuration                                 : 1h 41mn\nBit rate                                 : 842 Kbps\nWidth                                    : 640 pixels\nHeight                                   : 272 pixels\nDisplay aspect ratio                     : 2.35:1\nFrame rate mode                          : Constant\nFrame rate                               : 23.976 fps\nColor space                              : YUV\nChroma subsampling                       : 4:2:0\nBit depth                                : 8 bits\nScan type                                : Progressive\nCompression mode                         : Lossy\nBits/(Pixel*Frame)                       : 0.202\nStream size                              : 612 MiB (88%)\nTitle                                    : ~ rDX ~\nWriting library                          : XviD 1.2.1 (UTC 2008-12-04)\nDefault                                  : Yes\nForced                                   : No\n\nAudio\nID                                       : 2\nFormat                                   : MPEG Audio\nFormat version                           : Version 1\nFormat profile                           : Layer 3\nCodec ID                                 : A_MPEG/L3\nCodec ID/Hint                            : MP3\nDuration                                 : 1h 41mn\nBit rate mode                            : Constant\nBit rate                                 : 96.0 Kbps\nChannel(s)                               : 2 channels\nSampling rate                            : 48.0 KHz\nCompression mode                         : Lossy\nStream size                              : 69.8 MiB (10%)\nTitle                                    : ~ rDX ~\nWriting library                          : LAME3.98r\nEncoding settings                        : -m s -V 4 -q 3 -lowpass 15.1 -b 96\nDefault                                  : Yes\nForced                                   : No","torrent":{"xt":"urn:btih:10f8b6037cc6176283a7b9f67050ff37dbbab4f3","amp;dn":"Second+Hand+Husband+2015+Hindi+Movies+PDVDRip+XviD+New+Sample+%E2%98%BBr","amp;tr":["udp%3A%2F%2Ftracker.openbittorrent.com%3A80","udp%3A%2F%2Fopen.demonii.com%3A1337","udp%3A%2F%2Ftracker.coppersurfer.tk%3A6969","udp%3A%2F%2Fexodus.desync.com%3A6969"],"infoHash":"10f8b6037cc6176283a7b9f67050ff37dbbab4f3","infoHashBuffer":{"type":"Buffer","data":[16,248,182,3,124,198,23,98,131,167,185,246,112,80,255,55,219,186,180,243]},"announce":[],"urlList":[]}}